<?xml version="1.0" encoding="UTF-8"?>
<svg id="Layer_1" data-name="Layer 1" xmlns="http://www.w3.org/2000/svg" viewBox="0 0 1259.34 1023">
  <defs>
    <style>
      .cls-1 {
        fill: #fff;
      }

      .cls-1, .cls-2 {
        stroke: #1d1a1a;
        stroke-miterlimit: 10;
      }

      .cls-3, .cls-2 {
        fill: #aed8e6;
      }
    </style>
  </defs>
  <rect class="cls-3" y="121.25" width="1191.34" height="720"/>
  <path class="cls-2" d="M721.15,334.84c-.37,.21-.73,.42-1.09,.64,.35-.22,.69-.45,1.04-.66,.02,0,.03,0,.05,.02Z"/>
  <path class="cls-1" d="M645.72,394.46c0,5.26,0,9.38,0,13.5,0,56.77-.04,113.55,.03,170.32,.02,17.72,4,34.33,13.35,49.73,13.37,22.03,32.19,36.55,57.16,42.6,14.93,3.61,30.23,3.76,44.64-1.98,9.74-3.88,19.52-8.69,27.74-15.07,6.98-5.42,12.5-13.21,17.36-20.79,11.23-17.52,16.01-37.17,15.03-57.85-.57-12.03-2.89-23.98-4.42-35.97-.36-2.79-.73-5.57-1.25-9.55-14.72,3.77-29.11,4.44-41.06-7.47,34.39-19.02,68.77-38.05,103.9-57.48,0,2.47,0,4.24,0,6,0,37.46,.4,74.93-.26,112.38-.21,11.78-2.83,23.61-5.21,35.25-3.43,16.77-10.98,31.91-20.37,46.14-7.07,10.71-14.87,20.67-24.37,29.5-14.85,13.82-31.87,23.76-50.74,30.52-18.68,6.69-38.11,8.83-57.86,6.41-18.44-2.26-36.02-7.55-51.86-17.44-8.36-5.22-16.1-11.17-22.98-18.6-10.64-11.49-18.86-24.32-25.49-38.26-5.05-10.62-6.95-22.11-6.98-33.82-.15-55.94-.47-111.88-.07-167.82,.11-14.69,4.51-28.65,13.73-40.74,4.5-5.9,8.08-12.52,14.87-16.29,1.38-.77,2.69-1.68,5.11-3.2Z"/>
  <path class="cls-1" d="M780.96,371.04c0,23-17.94,41.64-40.07,41.64-15.69,0-29.27-9.36-35.85-23.01,2.92,6.98,7.8,13.14,15.33,17.7-2.73,0-5.46,.01-8.19,0-15.65-.07-31.3-.29-46.95-.14-4.44,.05-5.69-1.48-5.7-5.78-.01-6.62-.53-13.26-1.25-19.84-.78-7.23-7.04-10.76-13-6.94-8.71,5.59-18.17,10.78-25.09,18.22-8.87,9.53-16.07,20.44-20.39,33.53-6.93,21.02-5.44,42.31-5.53,63.65-.17,38.61-.05,77.22-.13,115.84-.03,14.77,.09,29.54,4.11,43.89,1.55,5.53,3.35,11.22,6.28,16.1,5.34,8.87,8.66,19.09,16.9,26.15,2.09,1.79,3.57,4.31,5.01,6.08-8.69,10.54-16.8,20.38-25.13,30.49-4.93-6.02-9.74-11.84-14.49-17.71-5.1-6.29-10.14-12.62-15.21-18.93-2.54-3.15-4.56-2.86-7.65-.05-7.46,6.77-15.08,13.48-23.3,19.26-15.7,11.03-33.54,16.44-52.51,19.06-21.21,2.93-41.68,.28-61.5-6.96-12.9-4.71-25.39-10.65-35.85-20-7.38-6.6-15.37-12.64-22.05-19.89-6.47-7.01-12.02-14.98-17.28-22.98-11.64-17.72-17.9-37.59-21.28-58.32-1.41-8.64-1.76-17.52-1.8-26.29-.19-35.3-.06-70.59-.05-105.89v-5.07c34.72,18.81,68.76,37.25,103.55,56.1-5.07,4.15-9.98,8.53-15.33,12.28-1.32,.93-4.19,.13-6.17-.46-4.45-1.33-8.81-2.97-13.16-4.6-2.86-1.07-4.29-.18-4.92,2.79-3.75,17.66-8.42,35.19-6.67,53.55,1.68,17.49,5.22,34.35,15.23,49.28,12.28,18.31,28.76,31.05,50.15,36.49,18.19,4.63,36.68,3.59,53.67-4.25,16.06-7.4,29.27-18.66,39.29-34.04,11.35-17.43,15.86-36.12,15.78-56.46-.16-42.95,.06-85.9-.4-128.85-.21-19.81,1.82-39.18,9.15-57.59,3.02-7.6,7.79-14.61,12.44-21.42,3.23-4.74,7.25-9.09,11.55-12.9,13.12-11.6,26.67-21.71,45.9-21.08,26.11,.87,52.27,.35,78.41,.44,1.28,.01,2.54,.15,4.29,.69-.35,.21-.69,.44-1.04,.66,.36-.22,.72-.43,1.09-.64-.02-.01-.03-.01-.05-.02,5.83-3.46,12.59-5.43,19.79-5.43,22.13,0,40.07,18.65,40.07,41.65Z"/>
  <path class="cls-2" d="M721.15,334.84c-.37,.21-.73,.42-1.09,.64,.35-.22,.69-.45,1.04-.66,.02,0,.03,0,.05,.02Z"/>
  <path class="cls-1" d="M642.83,269.81c0,11.9-5.33,22.55-13.73,29.72-2.71,1.15-3.59,5.25-3.03,8.66,.81,4.96-.81,7.19-5.06,8.78-16.2,6.03-30.85,14.65-42.81,27.29-15.23,16.1-27.33,33.99-30.44,56.62-.67,4.89-2.95,6.44-7.89,6.32-12.96-.32-25.93-.07-38.9-.05-5.02,.01-10.03,0-15.67-.72-5.77,3.35-12.41,5.25-19.48,5.25-22.13,0-40.07-18.65-40.07-41.64s17.94-41.65,40.07-41.65c11.65,0,22.15,5.17,29.46,13.43-2.43-2.81-5.35-5.4-8.78-7.75h92.47v-31.26c4.99-6.42-14.9-7.7-14.26-33,.54-21.57,17.49-39.07,39.06-39.07s39.06,17.49,39.06,39.07Z"/>
</svg>